<svg baseProfile="tiny" xmlns="http://www.w3.org/2000/svg" preserveAspectRatio="xMinYMin meet" viewBox="0 0 108 9" width="108" height="9"><path d="M7.988 2.61l-.093.594s-.132-1.1-.295-1.512c-.249-.63-.359-.625-.36-.624.167.423.136.651.136.651s-.295-.805-1.076-1.061c-.865-.283-1.333-.206-1.387-.191h-.024l.019.002h-.001c.004.004.956.166 1.124.398 0 0-.404 0-.807.116-.018.005 1.481.187 1.787 1.685 0 0-.164-.343-.367-.401.134.407.099 1.178-.028 1.561-.016.049-.033-.213-.284-.326.08.575-.005 1.488-.404 1.739-.031.02.25-.901.057-.545-1.115 1.709-2.433.789-3.025.384.304.066.88-.01 1.135-.2l.001-.001c.277-.189.441-.328.589-.295s.246-.115.131-.246c-.115-.132-.393-.312-.77-.214-.266.07-.595.363-1.097.066-.386-.229-.422-.418-.425-.55l.036-.13c.044-.124.179-.161.254-.191.127.022.236.061.351.12v-.147l-.013-.169-.053-.24.001-.001.002-.001.002-.004c.008-.036.094-.106.201-.18l.297-.193.151-.095.017-.013.004-.003.002-.002c.042-.034.105-.097.119-.231v-.001l.001-.012.001-.009v-.024l-.001-.041-.002-.022v-.003l-.001-.003-.001-.004c-.014-.032-.065-.044-.277-.048h-.001l-.348-.001c-.26.001-.403-.254-.449-.353.063-.347.244-.595.543-.763l-.002-.008c.058-.035-.705-.001-1.056.446-.312-.077-.583-.072-.817-.017l-.167-.021c-.156-.141-.379-.402-.39-.713l-.002.002-.001-.009s-.474.365-.403 1.358l-.001.046c-.128.174-.192.32-.197.353-.114.232-.229.58-.323 1.109 0 0 .066-.208.198-.444-.097.297-.173.759-.128 1.452l.054-.375c.033.43.176.96.538 1.584.695 1.198 1.763 1.803 2.944 1.895.21.017.422.018.636.001l.059-.004c.242-.017.485-.054.728-.112 3.322-.803 2.96-4.814 2.96-4.814z"/><g transform="translate(9)"><path d="M5.736 4.913h1.844l.02-.392c0-.627-.168-1.215-.462-1.721.304-.807.293-1.492-.114-1.901-.387-.385-1.424-.323-2.597.197l-.263-.01c-1.61 0-2.96 1.108-3.334 2.6.505-.647 1.036-1.115 1.746-1.457l-.504.498c-1.871 1.871-2.462 4.315-1.827 4.95.483.483 1.357.401 2.362-.091.467.238.996.372 1.556.372 1.509 0 2.788-.971 3.251-2.324h-1.858c-.256.472-.756.793-1.33.793s-1.074-.321-1.33-.793c-.114-.213-.179-.457-.179-.716v-.006h3.018zm-3.015-.907c.043-.759.673-1.364 1.443-1.364s1.401.605 1.443 1.364h-2.887zm4.287-2.726c.262.265.255.752.031 1.36-.384-.585-.942-1.046-1.6-1.31.704-.302 1.277-.342 1.569-.05zm-6.278 6.277c-.334-.334-.233-1.036.197-1.881.268.752.79 1.384 1.464 1.79-.746.338-1.356.396-1.661.091z"/></g><g transform="translate(18)"><path d="M6.75 2.5c-.275 0-.5.225-.5.5v2c0 .275.225.5.5.5s.5-.225.5-.5v-2c0-.275-.225-.5-.5-.5zm-6 0c-.275 0-.5.225-.5.5v2c0 .275.225.5.5.5s.5-.225.5-.5v-2c0-.275-.225-.5-.5-.5zm.75 3.25c0 .414.336.75.75.75h.25v1c0 .275.225.5.5.5s.5-.225.5-.5v-1h.5v1c0 .275.225.5.5.5s.5-.225.5-.5v-1h.25c.414 0 .75-.336.75-.75v-2.75h-4.5v2.75zm3.177-5.051l.316-.608-.027-.084-.084.027-.321.617c-.252-.097-.525-.151-.811-.151s-.559.053-.811.151l-.321-.617-.084-.027-.027.084.316.608c-.708.32-1.221.997-1.31 1.801h4.472c-.089-.804-.601-1.48-1.31-1.801zm-1.927 1.413c-.2 0-.362-.162-.362-.363s.162-.363.362-.363.362.162.362.363c0 .2-.162.363-.362.363zm2 0c-.2 0-.363-.162-.363-.363s.162-.363.363-.363.362.162.362.363c0 .2-.162.363-.362.363z"/></g><g transform="translate(27)"><path d="M6.184 4.251c-.01-1.013.826-1.499.864-1.523-.47-.688-1.202-.782-1.463-.793-.623-.063-1.216.367-1.532.367s-.803-.357-1.32-.348c-.679.01-1.305.395-1.655 1.003-.706 1.224-.181 3.038.507 4.031.336.486.737 1.032 1.263 1.012.507-.02.698-.328 1.311-.328s.785.328 1.321.318c.545-.01.89-.495 1.224-.983.386-.564.545-1.11.554-1.138-.012-.006-1.063-.408-1.074-1.618zm-1.008-2.973c.279-.339.468-.809.416-1.278-.402.016-.89.268-1.178.606-.259.3-.486.778-.425 1.238.449.035.907-.228 1.187-.566z"/></g><g transform="translate(36)"><path d="M2.018 3.489l-1.145-1.983c.733-.918 1.861-1.506 3.127-1.506 1.464 0 2.745.787 3.442 1.961h-3.264l-.178-.008c-.952 0-1.755.653-1.982 1.535zm3.414-.95h2.293c.178.453.275.945.275 1.461 0 2.194-1.766 3.975-3.955 3.999l1.636-2.833c.23-.331.366-.733.366-1.166 0-.572-.236-1.089-.615-1.461zm-2.885 1.461c0-.801.652-1.453 1.453-1.453s1.453.652 1.453 1.453-.652 1.453-1.453 1.453-1.453-.652-1.453-1.453zm2.001 1.972l-1.145 1.983c-1.926-.288-3.403-1.949-3.403-3.956 0-.713.187-1.382.513-1.961l1.633 2.829c.327.696 1.035 1.179 1.854 1.179.19 0 .374-.026.548-.075z"/></g><g transform="translate(45)"><path d="M1.191.379l-.268 1.343h5.467l-.171.868h-5.47l-.265 1.343h5.466l-.305 1.532-2.203.73-1.909-.73.131-.664h-1.343l-.32 1.612 3.158 1.209 3.641-1.209 1.201-6.033z"/></g><g transform="translate(54)"><path d="M2.028 4c0-.511.414-.925.925-.925s.925.414.925.925c0 .511-.414.925-.925.925s-.925-.414-.925-.925zm1.972-4c-2.209 0-4 1.791-4 4s1.791 4 4 4 4-1.791 4-4-1.791-4-4-4zm-1.036 7.494c-1.203-.7-2.011-2.003-2.011-3.494s.809-2.795 2.011-3.494c1.203.7 2.012 2.002 2.012 3.494s-.809 2.795-2.012 3.494z"/></g><g transform="translate(63)"><path d="M4 0c-2.209 0-4 1.791-4 4s1.791 4 4 4 4-1.791 4-4-1.791-4-4-4zm2.375 6.375c-.309.309-.668.551-1.068.72l-.309.113v-.599c0-.315-.108-.547-.324-.695l.373-.055.359-.102.34-.158s.197-.141.289-.238.17-.208.232-.332.112-.272.148-.445.055-.364.055-.572c0-.404-.132-.747-.395-1.031.12-.313.107-.652-.039-1.02l-.098-.012c-.068-.008-.189.021-.365.086s-.373.172-.592.32c-.31-.086-.632-.129-.965-.129-.336 0-.656.043-.961.129-.138-.094-.269-.171-.393-.232l-.297-.125-.207-.041-.123-.004-.039.008c-.146.37-.159.71-.039 1.02-.263.284-.395.628-.395 1.031 0 .208.018.399.055.572s.086.322.148.445.14.234.232.332.189.177.289.238l.34.158.359.102.373.055c-.214.146-.32.378-.32.695v.611l-.348-.125c-.4-.169-.759-.411-1.068-.72s-.551-.668-.72-1.068c-.175-.414-.264-.854-.264-1.307s.089-.894.264-1.307c.169-.4.411-.759.72-1.068s.668-.551 1.068-.72c.414-.175.854-.264 1.307-.264s.894.089 1.307.264c.4.169.759.411 1.068.72s.551.668.72 1.068c.175.414.264.854.264 1.307s-.089.894-.264 1.307c-.169.4-.411.759-.72 1.068z"/></g><g transform="translate(72)"><path d="M.473 0l.642 7.2 2.881.8 2.888-.801.643-7.199h-7.054zm5.861 6.741l-2.322.644v.004l-.006-.002-.006.002v-.004l-2.322-.644-.549-6.152h5.754l-.549 6.152zm-1.25-2.599l-.102 1.145-.986.266-.983-.265-.063-.705h-.887l.124 1.387 1.813.501 1.807-.501.242-2.711h-3.218l-.08-.904h3.379l.079-.883h-4.424l.238 2.67z"/></g><g transform="translate(81)"><path d="M3.985 0c-2.185 0-3.756 1.585-3.756 3.963 0 2.116 1.527 4.037 3.756 4.037 2.251 0 3.786-1.921 3.786-4.037 0-2.397-1.621-3.963-3.786-3.963zm1.393 3.895c-.001 1.323-.071 3.207-1.393 3.207-1.303 0-1.355-1.885-1.355-3.206 0-1.55.145-3.036 1.355-3.036s1.393 1.505 1.393 3.034z"/></g><g transform="translate(90)"><path d="M4 .5c-.188 0-.373.014-.553.041l-.008-.018c.1-.078.153-.186.13-.293-.029-.137-.175-.229-.363-.229l-.123.013c-.236.05-.392.224-.355.395.022.104.112.182.236.214v.023c-1.567.449-2.714 1.893-2.714 3.605 0 2.071 1.679 3.75 3.75 3.75s3.75-1.679 3.75-3.75c0-2.071-1.679-3.75-3.75-3.75zm-1.149-.118c-.021-.099.098-.212.259-.247l.097-.01c.125 0 .224.054.24.13.012.059-.024.122-.089.171-.055-.039-.125-.056-.196-.041s-.128.059-.162.116c-.08-.019-.137-.063-.149-.12zm3.16 5.879c-.343.343-.759.588-1.213.72l-.331-.537-.084.625-.382.026c-.76 0-1.474-.296-2.011-.833-.344-.343-.588-.759-.72-1.213l.537-.331-.625-.084-.026-.382c0-.76.296-1.474.833-2.011.344-.344.759-.588 1.213-.72l.331.537.084-.625.382-.026c.76 0 1.474.296 2.011.833.343.344.588.759.72 1.213l-.537.331.625.084.026.382c0 .76-.296 1.474-.833 2.011zm-.066-3.956l-1.539 1.17c-.114-.06-.241-.094-.37-.099l-.399-.837-.024.927c-.104.051-.196.122-.272.211l-.493-.175.36.379c-.049.106-.077.219-.082.335l-.837.399.928.024.009.018-1.17 1.539 1.539-1.17c.114.06.241.094.37.099l.399.837.024-.927c.104-.051.196-.122.272-.211l.493.175-.36-.379c.05-.106.077-.219.082-.335l.837-.399-.928-.024-.009-.018 1.17-1.539zm-1.944 1.168zm-.157.043l.157-.017.096.006h.001l.196.054-.559.425-.425.559-.044-.138c-.086-.405.172-.803.578-.89zm.548 1.374l-.236.094-.157.017-.096-.006h-.001l-.196-.054.559-.425.425-.559.044.138c.068.319-.079.634-.342.796z"/></g><g transform="translate(99)"><path d="M.003 4l-.003-2.438 3-.407v2.845zm3.497-2.918l3.999-.582v3.5h-3.999zm4 3.418l-.001 3.5-3.999-.563v-2.937zm-4.5 2.874l-2.998-.411v-2.463h2.998z"/></g></svg>