<?xml version="1.0" encoding="utf-8"?>
<!-- Generated by IcoMoon.io -->
<!DOCTYPE svg PUBLIC "-//W3C//DTD SVG 1.1//EN" "http://www.w3.org/Graphics/SVG/1.1/DTD/svg11.dtd">
<svg version="1.1" xmlns="http://www.w3.org/2000/svg" xmlns:xlink="http://www.w3.org/1999/xlink" width="8" height="8" viewBox="0 0 8 8">
<g>
</g>
	<path d="M6.75 2.5c-0.275 0-0.5 0.225-0.5 0.5v2c0 0.275 0.225 0.5 0.5 0.5s0.5-0.225 0.5-0.5v-2c0-0.275-0.225-0.5-0.5-0.5zM0.75 2.5c-0.275 0-0.5 0.225-0.5 0.5v2c0 0.275 0.225 0.5 0.5 0.5s0.5-0.225 0.5-0.5v-2c0-0.275-0.225-0.5-0.5-0.5zM1.5 5.75c0 0.414 0.336 0.75 0.75 0.75h0.25v1c0 0.275 0.225 0.5 0.5 0.5s0.5-0.225 0.5-0.5v-1h0.5v1c0 0.275 0.225 0.5 0.5 0.5s0.5-0.225 0.5-0.5v-1h0.25c0.414 0 0.75-0.336 0.75-0.75v-2.75h-4.5v2.75zM4.677 0.699l0.316-0.608c0.016-0.030 0.004-0.068-0.027-0.084s-0.068-0.004-0.084 0.027l-0.321 0.617c-0.252-0.097-0.525-0.151-0.811-0.151s-0.559 0.053-0.811 0.151l-0.321-0.617c-0.016-0.030-0.054-0.042-0.084-0.027s-0.042 0.054-0.027 0.084l0.316 0.608c-0.708 0.32-1.221 0.997-1.31 1.801h4.472c-0.089-0.804-0.601-1.48-1.31-1.801zM2.75 2.112c-0.2 0-0.362-0.162-0.362-0.363s0.162-0.363 0.362-0.363 0.362 0.162 0.362 0.363c-0 0.2-0.162 0.363-0.362 0.363zM4.75 2.112c-0.2 0-0.363-0.162-0.363-0.363s0.162-0.363 0.363-0.363 0.362 0.162 0.362 0.363c0 0.2-0.162 0.363-0.362 0.363z" fill="#000000"></path>
</svg>
