<?xml version="1.0" encoding="utf-8"?>
<!-- Generated by IcoMoon.io -->
<!DOCTYPE svg PUBLIC "-//W3C//DTD SVG 1.1//EN" "http://www.w3.org/Graphics/SVG/1.1/DTD/svg11.dtd">
<svg version="1.1" xmlns="http://www.w3.org/2000/svg" xmlns:xlink="http://www.w3.org/1999/xlink" width="8" height="8" viewBox="0 0 8 8">
<g>
</g>
	<path d="M4 0c-2.209 0-4 1.791-4 4s1.791 4 4 4 4-1.791 4-4-1.791-4-4-4zM6.375 6.375c-0.309 0.309-0.668 0.551-1.068 0.72-0.102 0.043-0.205 0.081-0.309 0.113v-0.599c0-0.315-0.108-0.547-0.324-0.695 0.135-0.013 0.26-0.031 0.373-0.055s0.233-0.057 0.359-0.102 0.24-0.097 0.34-0.158 0.197-0.141 0.289-0.238 0.17-0.208 0.232-0.332 0.112-0.272 0.148-0.445 0.055-0.364 0.055-0.572c0-0.404-0.132-0.747-0.395-1.031 0.12-0.313 0.107-0.652-0.039-1.020l-0.098-0.012c-0.068-0.008-0.189 0.021-0.365 0.086s-0.373 0.172-0.592 0.32c-0.31-0.086-0.632-0.129-0.965-0.129-0.336 0-0.656 0.043-0.961 0.129-0.138-0.094-0.269-0.171-0.393-0.232s-0.223-0.103-0.297-0.125-0.143-0.036-0.207-0.041-0.105-0.007-0.123-0.004-0.031 0.005-0.039 0.008c-0.146 0.37-0.159 0.71-0.039 1.020-0.263 0.284-0.395 0.628-0.395 1.031 0 0.208 0.018 0.399 0.055 0.572s0.086 0.322 0.148 0.445 0.14 0.234 0.232 0.332 0.189 0.177 0.289 0.238 0.214 0.114 0.34 0.158 0.246 0.078 0.359 0.102 0.238 0.042 0.373 0.055c-0.214 0.146-0.32 0.378-0.32 0.695v0.611c-0.118-0.035-0.234-0.077-0.348-0.125-0.4-0.169-0.759-0.411-1.068-0.72s-0.551-0.668-0.72-1.068c-0.175-0.414-0.264-0.854-0.264-1.307s0.089-0.894 0.264-1.307c0.169-0.4 0.411-0.759 0.72-1.068s0.668-0.551 1.068-0.72c0.414-0.175 0.854-0.264 1.307-0.264s0.894 0.089 1.307 0.264c0.4 0.169 0.759 0.411 1.068 0.72s0.551 0.668 0.72 1.068c0.175 0.414 0.264 0.854 0.264 1.307s-0.089 0.894-0.264 1.307c-0.169 0.4-0.411 0.759-0.72 1.068z" fill="#000000"></path>
</svg>
