<?xml version="1.0" encoding="utf-8"?>
<!-- Generated by IcoMoon.io -->
<!DOCTYPE svg PUBLIC "-//W3C//DTD SVG 1.1//EN" "http://www.w3.org/Graphics/SVG/1.1/DTD/svg11.dtd">
<svg version="1.1" xmlns="http://www.w3.org/2000/svg" xmlns:xlink="http://www.w3.org/1999/xlink" width="8" height="8" viewBox="0 0 8 8">
<g>
</g>
	<path d="M2.028 4c0-0.511 0.414-0.925 0.925-0.925s0.925 0.414 0.925 0.925c0 0.511-0.414 0.925-0.925 0.925s-0.925-0.414-0.925-0.925zM4 0c-2.209 0-4 1.791-4 4s1.791 4 4 4c2.209 0 4-1.791 4-4s-1.791-4-4-4zM2.964 7.494c-1.203-0.7-2.011-2.003-2.011-3.494s0.809-2.795 2.011-3.494c1.203 0.7 2.012 2.002 2.012 3.494s-0.809 2.795-2.012 3.494z" fill="#000000"></path>
</svg>
