<?xml version="1.0" encoding="utf-8"?>
<!-- Generated by IcoMoon.io -->
<!DOCTYPE svg PUBLIC "-//W3C//DTD SVG 1.1//EN" "http://www.w3.org/Graphics/SVG/1.1/DTD/svg11.dtd">
<svg version="1.1" xmlns="http://www.w3.org/2000/svg" xmlns:xlink="http://www.w3.org/1999/xlink" width="8" height="8" viewBox="0 0 8 8">
<g>
</g>
	<path d="M4 0.5c-0.188 0-0.373 0.014-0.553 0.041-0.002-0.006-0.005-0.012-0.008-0.018 0.1-0.078 0.153-0.186 0.13-0.293-0.029-0.137-0.175-0.229-0.363-0.229-0.040 0-0.082 0.004-0.123 0.013-0.236 0.050-0.392 0.224-0.355 0.395 0.022 0.104 0.112 0.182 0.236 0.214-0 0.008-0 0.015 0 0.023-1.567 0.449-2.714 1.893-2.714 3.605 0 2.071 1.679 3.75 3.75 3.75s3.75-1.679 3.75-3.75c0-2.071-1.679-3.75-3.75-3.75zM2.851 0.382c-0.021-0.099 0.098-0.212 0.259-0.247 0.032-0.007 0.065-0.010 0.097-0.010 0.125 0 0.224 0.054 0.24 0.13 0.012 0.059-0.024 0.122-0.089 0.171-0.055-0.039-0.125-0.056-0.196-0.041s-0.128 0.059-0.162 0.116c-0.080-0.019-0.137-0.063-0.149-0.12zM6.011 6.261c-0.343 0.343-0.759 0.588-1.213 0.72l-0.331-0.537-0.084 0.625c-0.126 0.017-0.253 0.026-0.382 0.026-0.76 0-1.474-0.296-2.011-0.833-0.344-0.343-0.588-0.759-0.72-1.213l0.537-0.331-0.625-0.084c-0.017-0.126-0.026-0.253-0.026-0.382 0-0.76 0.296-1.474 0.833-2.011 0.344-0.344 0.759-0.588 1.213-0.72l0.331 0.537 0.084-0.625c0.126-0.017 0.253-0.026 0.382-0.026 0.76 0 1.474 0.296 2.011 0.833 0.343 0.344 0.588 0.759 0.72 1.213l-0.537 0.331 0.625 0.084c0.017 0.126 0.026 0.253 0.026 0.382 0 0.76-0.296 1.474-0.833 2.011zM5.945 2.305l-1.539 1.17c-0.114-0.060-0.241-0.094-0.37-0.099l-0.399-0.837-0.024 0.927c-0.104 0.051-0.196 0.122-0.272 0.211l-0.493-0.175 0.36 0.379c-0.049 0.106-0.077 0.219-0.082 0.335l-0.837 0.399 0.928 0.024c0.003 0.006 0.006 0.012 0.009 0.018l-1.17 1.539 1.539-1.17c0.114 0.060 0.241 0.094 0.37 0.099l0.399 0.837 0.024-0.927c0.104-0.051 0.196-0.122 0.272-0.211l0.493 0.175-0.36-0.379c0.050-0.106 0.077-0.219 0.082-0.335l0.837-0.399-0.928-0.024c-0.003-0.006-0.006-0.012-0.009-0.018l1.17-1.539zM4.001 3.473v0zM3.844 3.516c0.053-0.011 0.105-0.017 0.157-0.017 0.032 0 0.064 0.002 0.096 0.006l0.001 0-0-0c0.068 0.009 0.134 0.027 0.196 0.054l-0.559 0.425-0.425 0.559c-0.019-0.044-0.033-0.090-0.044-0.138-0.086-0.405 0.172-0.803 0.578-0.89zM4.392 4.89v0 0c-0.071 0.043-0.15 0.076-0.236 0.094-0.053 0.011-0.105 0.017-0.157 0.017-0.032 0-0.065-0.002-0.096-0.006l-0.001-0c-0.068-0.009-0.134-0.027-0.196-0.054l0.559-0.425 0.425-0.559c0.019 0.044 0.033 0.090 0.044 0.138 0.068 0.319-0.079 0.634-0.342 0.796z" fill="#000000"></path>
</svg>
